#!OML:ASF I:\Actors\actors\Patient Classification 1\Patient 1\Session 1\Subject1.ASF
:FULLY-SPECIFIED
:DEGREES
625
root 0.245149 17.5454 8.43833 12.5527 23.1144 -9.97786
lowerback 3.07842 6.05781 8.28408
upperback -8.87314 8.86725 -1.61241
thorax -9.75668 3.64368 -7.23234
lowerneck -20.1005 -3.17939 -1.67731
upperneck 23.8546 -6.54355 9.65044
head 11.5435 -1.82362 2.81691
rclavicle -2.06239e-014 -9.54166e-015
rhumerus 59.9143 16.6459 -59.5298
rradius 59.4764
rwrist -16.8302
rhand 29.2736 -24.3234
rfingers 7.12502
rthumb 53.0527 316.218
lclavicle -2.06239e-014 -9.54166e-015
lhumerus 59.9404 -25.6703 60.4914
lradius 63.36
lwrist 31.0147
lhand -47.0971 10.5563
lfingers 7.12502
lthumb -19.8006 39.5678
rfemur -3.06185 30.4185 25.3886
rtibia -1.44119
rfoot -36.3641 -46.8249
rtoes 29.525
lfemur -15.4283 -48.8653 5.94031
ltibia -4.5338
lfoot -2.34975 42.5118
ltoes -11.6344
626
root 0.249295 17.5456 8.44947 12.5429 23.1532 -9.95439
lowerback 3.01736 6.10488 8.28591
upperback -8.93353 8.9224 -1.69886
thorax -9.76509 3.66553 -7.32602
lowerneck -20.0165 -3.14427 -1.63549
upperneck 24.0169 -6.53737 9.71654
head 11.5906 -1.80349 2.84035
rclavicle -9.54788e-014 -2.62396e-014
rhumerus 60.3872 16.3672 -58.0263
rradius 59.0371
rwrist -17.2171
rhand 30.4899 -25.0381
rfingers 7.12502
rthumb 54.1469 316.224
lclavicle -9.54788e-014 -2.62396e-014
lhumerus 59.9689 -25.5528 59.9913
lradius 63.6417
lwrist 33.2806
lhand -47.414 10.7029
lfingers 7.12502
lthumb -20.1053 39.6826
rfemur -3.02422 30.4156 25.4019
rtibia -1.3797
rfoot -36.4361 -46.8313
rtoes 29.6779
lfemur -15.3325 -48.7899 5.8349
ltibia -4.56883
lfoot -2.28979 42.3752
ltoes -11.7479
627
root 0.253449 17.5457 8.46135 12.5006 23.2209 -9.89664
lowerback 2.99428 6.16257 8.26607
upperback -8.96184 8.98881 -1.81259
thorax -9.75574 3.69511 -7.44002
lowerneck -20.0559 -3.16264 -1.59881
upperneck 24.235 -6.63197 9.8469
head 11.6945 -1.81466 2.87355
rclavicle 3.19049e-014 2.22639e-014
rhumerus 60.7855 15.9797 -56.6649
rradius 58.6369
rwrist -16.5669
rhand 31.9631 -25.7115
rfingers 7.12502
rthumb 55.4627 316.49
lclavicle 3.19049e-014 2.22639e-014
lhumerus 60.1511 -25.4806 59.4239
lradius 63.7667
lwrist 35.4858
lhand -47.3252 11.9125
lfingers 7.12502
lthumb -20.0199 40.9012
rfemur -2.88319 30.4723 25.431
rtibia -1.36325
rfoot -36.6943 -46.866
rtoes 29.9313
lfemur -15.1519 -48.5938 5.58842
ltibia -4.59207
lfoot -2.18091 42.0661
ltoes -12.092
628
root 0.257168 17.5452 8.47463 12.4409 23.2936 -9.87264
lowerback 2.9614 6.19652 8.25603
upperback -8.98967 9.02613 -1.89028
thorax -9.74971 3.711 -7.51769
lowerneck -20.065 -3.15509 -1.56306
upperneck 24.4558 -6.67246 9.91679
head 11.787 -1.81025 2.89339
rclavicle -3.11719e-014 -2.78299e-014
rhumerus 61.1973 15.6071 -55.2744
rradius 58.0958
rwrist -15.7182
rhand 34.2002 -25.8906
rfingers 7.12502
rthumb 57.4383 317.894
lclavicle -3.11719e-014 -2.78299e-014
lhumerus 60.1919 -25.3054 58.9358
lradius 63.9299
lwrist 37.82
lhand -46.6475 14.2701
lfingers 7.12502
lthumb -19.3684 43.3255
rfemur -2.70085 30.5381 25.5176
rtibia -1.38895
rfoot -36.9013 -46.959
rtoes 29.9649
lfemur -14.9511 -48.3756 5.37061
ltibia -4.63164
lfoot -2.1001 41.7407
ltoes -12.3953
629
root 0.260651 17.5449 8.48825 12.3926 23.3566 -9.86308
lowerback 2.88495 6.20749 8.23983
upperback -9.01562 9.03039 -1.93535
thorax -9.72759 3.71399 -7.5488
lowerneck -19.9518 -3.10254 -1.57946
upperneck 24.5666 -6.61764 9.98439
head 11.807 -1.77664 2.93452
rclavicle 1.31695e-015 -2.38542e-014
rhumerus 61.5515 15.4636 -53.7319
rradius 57.6246
rwrist -15.8839
rhand 35.7509 -26.1235
rfingers 7.12502
rthumb 58.7894 318.885
lclavicle 1.31695e-015 -2.38542e-014
lhumerus 60.0022 -25.0417 58.5845
lradius 64.1892
lwrist 40.2636
lhand -46.1473 16.0737
lfingers 7.12502
lthumb -18.8874 45.1767
rfemur -2.54717 30.5378 25.6043
rtibia -1.41143
rfoot -36.9058 -47.0616
rtoes 29.7472
lfemur -14.7922 -48.2685 5.21892
ltibia -4.6534
lfoot -2.05439 41.5421
ltoes -12.5683
630
root 0.263747 17.5446 8.50122 12.3578 23.4324 -9.84303
lowerback 2.78821 6.21796 8.20071
upperback -9.04408 9.03026 -1.98235
thorax -9.69964 3.71712 -7.56664
lowerneck -19.8046 -3.04703 -1.47992
upperneck 24.6878 -6.59397 10.0444
head 11.823 -1.74682 2.94845
rclavicle 5.05658e-014 1.19271e-014
rhumerus 61.8095 15.5556 -52.047
rradius 57.3202
rwrist -16.507
rhand 36.4372 -26.7638
rfingers 7.12502
rthumb 59.382 318.823
lclavicle 5.05658e-014 1.19271e-014
lhumerus 59.8163 -24.8213 58.2491
lradius 64.3492
lwrist 42.6607
lhand -45.9095 16.9675
lfingers 7.12502
lthumb -18.6587 46.0926
rfemur -2.43016 30.4842 25.662
rtibia -1.41012
rfoot -36.9745 -47.0688
rtoes 29.7443
lfemur -14.6784 -48.1985 5.08555
ltibia -4.64605
lfoot -1.99664 41.3626
ltoes -12.7894
631
root 0.265463 17.5444 8.51475 12.3006 23.5049 -9.8065
lowerback 2.70982 6.21421 8.12373
upperback -9.06891 9.01008 -2.0198
thorax -9.68853 3.71253 -7.55516
lowerneck -19.7402 -2.98728 -1.34884
upperneck 24.9378 -6.55568 9.98778
head 11.8976 -1.71513 2.91852
rclavicle -4.72735e-014 2.22639e-014
rhumerus 62.0516 15.7574 -50.4421
rradius 57.024
rwrist -17.2424
rhand 37.0078 -27.8051
rfingers 7.12502
rthumb 59.8719 318.281
lclavicle -4.72735e-014 2.22639e-014
lhumerus 59.6278 -24.6461 57.8074
lradius 64.4543
lwrist 45.0219
lhand -46.3127 19.931
lfingers 7.12502
lthumb -19.0464 49.0185
rfemur -2.27751 30.4287 25.7203
rtibia -1.41876
rfoot -37.1235 -47.0349
rtoes 29.8862
lfemur -14.508 -48.201 4.91131
ltibia -4.65304
lfoot -1.97934 41.2444
ltoes -12.8976
632
root 0.266181 17.5444 8.52778 12.2464 23.6167 -9.7908
lowerback 2.62765 6.19675 8.09123
upperback -9.09179 8.97443 -2.06046
thorax -9.6696 3.69721 -7.56961
lowerneck -19.7046 -2.96176 -1.26076
upperneck 25.1968 -6.55079 9.91937
head 11.985 -1.70305 2.88608
rclavicle -5.58461e-014 -5.32743e-014
rhumerus 62.2772 15.9439 -49.0804
rradius 56.7846
rwrist -17.7943
rhand 37.5959 -29.2907
rfingers 7.12502
rthumb 60.3742 317.328
lclavicle -5.58461e-014 -5.32743e-014
lhumerus 59.4113 -24.5262 57.3489
lradius 64.5802
lwrist 47.3508
lhand -46.1149 19.8197
lfingers 7.12502
lthumb -18.8562 48.9257
rfemur -2.12882 30.3785 25.8062
rtibia -1.44324
rfoot -37.2343 -47.0679
rtoes 29.856
lfemur -14.3816 -48.1386 4.79956
ltibia -4.68183
lfoot -1.9095 41.0472
ltoes -13.0419
633
root 0.266391 17.5443 8.53982 12.1937 23.7748 -9.80471
lowerback 2.54277 6.19331 8.1175
upperback -9.11062 8.9609 -2.11654
thorax -9.63056 3.68896 -7.63264
lowerneck -19.7186 -2.99705 -1.33625
upperneck 25.4685 -6.64593 10.0714
head 12.1113 -1.72046 2.9497
rclavicle 5.41378e-015 -1.51076e-014
rhumerus 62.3955 16.0313 -47.895
rradius 56.7081
rwrist -17.8581
rhand 38.6962 -31.0691
rfingers 7.12502
rthumb 61.3059 316.599
lclavicle 5.41378e-015 -1.51076e-014
lhumerus 59.1989 -24.491 56.9982
lradius 64.6598
lwrist 49.612
lhand -45.8419 19.5328
lfingers 7.12502
lthumb -18.5937 48.6641
rfemur -2.00577 30.3272 25.9275
rtibia -1.44229
rfoot -37.2784 -47.1797
rtoes 29.6686
lfemur -14.3431 -48.0188 4.77608
ltibia -4.69349
lfoot -1.85275 40.7717
ltoes -13.261
